<svg xmlns="http://www.w3.org/2000/svg" version="1.1" xmlns:xlink="http://www.w3.org/1999/xlink" xmlns:svgjs="http://svgjs.dev/svgjs" viewBox="0 0 800 800" opacity="0.18"><defs><filter id="bbburst-blur-1" x="-100%" y="-100%" width="400%" height="400%"><feGaussianBlur in="SourceGraphic" stdDeviation="1"></feGaussianBlur></filter><filter id="bbburst-blur-2" x="-100%" y="-100%" width="400%" height="400%"><feGaussianBlur in="SourceGraphic" stdDeviation="2"></feGaussianBlur></filter><filter id="bbburst-blur-3" x="-100%" y="-100%" width="400%" height="400%"><feGaussianBlur in="SourceGraphic" stdDeviation="4"></feGaussianBlur></filter><filter id="bbburst-blur-4" x="-100%" y="-100%" width="400%" height="400%"><feGaussianBlur in="SourceGraphic" stdDeviation="12"></feGaussianBlur></filter><symbol id="bbburst-shape-5" viewBox="0 0 145 145"><circle cx="72.5" cy="72.5" r="72.5"></circle></symbol><symbol id="bbburst-shape-10" viewBox="0 0 145 145"><circle cx="72.5" cy="72.5" r="61.5" fill="none" stroke-width="22"></circle></symbol></defs><use xlink:href="#bbburst-shape-5" width="5.930950166507211" opacity="0.9410235837260814" transform="matrix(0.9999930949113827,0.0037161982662909294,-0.0037161982662909294,0.9999930949113827,761.2247737518193,-354.32229387440424)" fill="#94148c"></use><use xlink:href="#bbburst-shape-10" width="13.384572399047508" opacity="0.8510287088613493" transform="matrix(0.8940026413428097,0.4480616891367521,-0.4480616891367521,0.8940026413428097,825.0494892998469,-345.38443691708295)" fill="none" stroke="#94148c"></use><use xlink:href="#bbburst-shape-5" width="9.434084000113064" opacity="0.8836578638367567" transform="matrix(0.8785310212531475,0.47768529880654864,-0.47768529880654864,0.8785310212531475,878.8385823058233,-310.6339773578836)" fill="#94148c"></use><use xlink:href="#bbburst-shape-10" width="19.117643295480814" opacity="0.510841827379018" transform="matrix(0.934217997542259,0.35670258348956746,-0.35670258348956746,0.934217997542259,451.3199230503743,-296.25165802869975)" fill="none" stroke="#94148c" filter="url(#bbburst-blur-1)"></use><use xlink:href="#bbburst-shape-10" width="34.95631059361881" opacity="0.5112890315979663" transform="matrix(0.9910794373370573,-0.1332724611000408,0.1332724611000408,0.9910794373370573,414.99804488008925,-19.92405054622924)" fill="none" stroke="#94148c" filter="url(#bbburst-blur-1)"></use><use xlink:href="#bbburst-shape-5" width="22.193863269458884" opacity="0.7287522591631617" transform="matrix(0.9057467781165758,-0.42381927036349176,0.42381927036349176,0.9057467781165758,363.9807579743682,-269.20102326504343)" fill="#2f46bc"></use><use xlink:href="#bbburst-shape-10" width="8.422869893103908" opacity="0.9250738554716389" transform="matrix(0.750591071530049,-0.6607670113885626,0.6607670113885626,0.750591071530049,464.13552155143685,-266.8622945588032)" fill="none" stroke="#94148c"></use><use xlink:href="#bbburst-shape-10" width="32.45668170818727" opacity="0.41855456929489554" transform="matrix(0.8973573289975307,0.44130468397062983,-0.44130468397062983,0.8973573289975307,411.8850067990579,-177.69778149387062)" fill="none" stroke="#94148c" filter="url(#bbburst-blur-2)"></use><use xlink:href="#bbburst-shape-5" width="53.581418078268115" opacity="0.3260073614508352" transform="matrix(0.8031228221156773,0.595813504879631,-0.595813504879631,0.8031228221156773,634.4523360571889,217.8285378197134)" fill="#94148c" filter="url(#bbburst-blur-2)"></use><use xlink:href="#bbburst-shape-5" width="10.999864583897917" opacity="0.8613357798535823" transform="matrix(0.7338588551950943,-0.6793019804562221,0.6793019804562221,0.7338588551950943,391.59062538916385,-249.42043801925638)" fill="#f7920c"></use><use xlink:href="#bbburst-shape-10" width="18.35730696281794" opacity="0.7112969820692709" transform="matrix(0.7231595188949961,-0.6906810481195772,0.6906810481195772,0.7231595188949961,233.4946283024654,-228.8583592406738)" fill="none" stroke="#94148c"></use><use xlink:href="#bbburst-shape-10" width="4.614543093663169" opacity="0.9827865483190379" transform="matrix(0.9588530445519751,-0.2839028688713942,0.2839028688713942,0.9588530445519751,677.1802003179588,-367.1810091612596)" fill="none" stroke="#f7920c"></use><use xlink:href="#bbburst-shape-5" width="16.74249288311025" opacity="0.6257780111610853" transform="matrix(0.9833510003713342,0.18171629004769063,-0.18171629004769063,0.9833510003713342,491.1176661925011,-369.1399712300245)" fill="#94148c" filter="url(#bbburst-blur-1)"></use><use xlink:href="#bbburst-shape-10" width="37.063821821033194" opacity="0.30864648356029367" transform="matrix(0.9876620465899543,0.15660038865131548,-0.15660038865131548,0.9876620465899543,154.49955137011364,-352.20541565492726)" fill="none" stroke="#f7920c" filter="url(#bbburst-blur-2)"></use><use xlink:href="#bbburst-shape-10" width="29.437152444190286" opacity="0.4812643987357297" transform="matrix(0.9868059886297278,0.16190719812443677,-0.16190719812443677,0.9868059886297278,731.5650473131641,107.87301339927257)" fill="none" stroke="#94148c" filter="url(#bbburst-blur-1)"></use><use xlink:href="#bbburst-shape-5" width="48.62917826896056" opacity="0.09905888482301017" transform="matrix(0.7706301043174176,-0.6372827020402531,0.6372827020402531,0.7706301043174176,-213.6829861610316,221.09829440340877)" fill="#f7920c" filter="url(#bbburst-blur-3)"></use><use xlink:href="#bbburst-shape-10" width="5.253508527219412" opacity="0.9714802116408902" transform="matrix(0.9719934842004391,-0.23500780130006493,0.23500780130006493,0.9719934842004391,681.26172692011,-370.2541598439846)" fill="none" stroke="#94148c"></use><use xlink:href="#bbburst-shape-10" width="51.7618618503017" opacity="0.39693595811175253" transform="matrix(0.9877063183214546,-0.15632091590019961,0.15632091590019961,0.9877063183214546,305.63336111423143,54.63849349995104)" fill="none" stroke="#94148c" filter="url(#bbburst-blur-2)"></use><use xlink:href="#bbburst-shape-5" width="13.253834041560555" opacity="0.8125336885165706" transform="matrix(0.9279135742471786,-0.37279538453128136,0.37279538453128136,0.9279135742471786,630.3150189259206,-181.78387759289225)" fill="#94148c"></use><use xlink:href="#bbburst-shape-5" width="15.576531840413473" opacity="0.7216383842059617" transform="matrix(0.9306746191340488,-0.36584799206732455,0.36584799206732455,0.9306746191340488,620.1685289959289,-92.29881805612382)" fill="#94148c"></use><use xlink:href="#bbburst-shape-10" width="22.728941018047987" opacity="0.5084376624241047" transform="matrix(0.7972607025293811,0.6036351316833354,-0.6036351316833354,0.7972607025293811,566.0696504988084,-170.27958805773554)" fill="none" stroke="#94148c" filter="url(#bbburst-blur-1)"></use><use xlink:href="#bbburst-shape-5" width="5.316785875145442" opacity="0.954344158791345" transform="matrix(0.9973843555801651,0.0722803378792506,-0.0722803378792506,0.9973843555801651,806.9917713939265,-357.75550080875)" fill="#f7920c"></use><use xlink:href="#bbburst-shape-5" width="16.956983067181728" opacity="0.6902785807854708" transform="matrix(0.9292997946056547,0.3693262673380921,-0.3693262673380921,0.9292997946056547,660.638642370287,-240.80807814885844)" fill="#94148c"></use><use xlink:href="#bbburst-shape-10" width="41.357678447353145" opacity="0.39613807771240606" transform="matrix(0.7224786600439759,-0.6913932208093027,0.6913932208093027,0.7224786600439759,360.7386944714791,310.80982939129)" fill="none" stroke="#94148c" filter="url(#bbburst-blur-2)"></use><use xlink:href="#bbburst-shape-10" width="9.643372505750609" opacity="0.8388268158793377" transform="matrix(0.9284895700157056,0.3713584769088354,-0.3713584769088354,0.9284895700157056,930.2561579283406,-212.60598682396918)" fill="none" stroke="#94148c"></use><use xlink:href="#bbburst-shape-10" width="14.483449373571624" opacity="0.8329992120561018" transform="matrix(0.9905640234186549,0.13705077711799543,-0.13705077711799543,0.9905640234186549,717.3108443065016,-292.80657469244665)" fill="none" stroke="#94148c"></use><use xlink:href="#bbburst-shape-10" width="9.243271864281954" opacity="0.8621400559897484" transform="matrix(0.9894435386628193,0.14491888696232103,-0.14491888696232103,0.9894435386628193,842.3057104475139,-259.0339384811598)" fill="none" stroke="#f7920c"></use><use xlink:href="#bbburst-shape-10" width="11.70189958818088" opacity="0.8303999100271657" transform="matrix(0.9757115950445803,-0.21905908631134458,0.21905908631134458,0.9757115950445803,641.2647603960235,-232.520766894947)" fill="none" stroke="#94148c"></use><use xlink:href="#bbburst-shape-5" width="37.33767439233941" opacity="0.19472170901497088" transform="matrix(0.9650334828501534,0.2621266430145981,-0.2621266430145981,0.9650334828501534,602.2834543836118,362.4214688137966)" fill="#94148c" filter="url(#bbburst-blur-3)"></use><use xlink:href="#bbburst-shape-5" width="4.64578662377875" opacity="0.9606916840156737" transform="matrix(0.9347665634235814,-0.3552625394060953,0.3552625394060953,0.9347665634235814,630.4654086438775,-342.962183202506)" fill="#94148c"></use><use xlink:href="#bbburst-shape-10" width="40.748145722694346" opacity="0.16936430380358924" transform="matrix(0.8225065816491051,0.5687555917473728,-0.5687555917473728,0.8225065816491051,263.53636353845513,22.225912215689164)" fill="none" stroke="#94148c" filter="url(#bbburst-blur-3)"></use><use xlink:href="#bbburst-shape-5" width="67.34212266851416" opacity="0.14504189765774256" transform="matrix(0.8155503400929557,-0.5786861349421328,0.5786861349421328,0.8155503400929557,-85.89764624981115,274.53160648996175)" fill="#94148c" filter="url(#bbburst-blur-3)"></use><use xlink:href="#bbburst-shape-10" width="16.861983380171637" opacity="0.7591485985239901" transform="matrix(0.9736083115689788,-0.2282254491589453,0.2282254491589453,0.9736083115689788,618.8920886456174,-160.91525157092187)" fill="none" stroke="#94148c"></use><use xlink:href="#bbburst-shape-10" width="14.454074257607578" opacity="0.8089915829720028" transform="matrix(0.9416621197665958,0.3365597305036379,-0.3365597305036379,0.9416621197665958,761.9075533874991,-284.4515860325841)" fill="none" stroke="#2f46bc"></use><use xlink:href="#bbburst-shape-10" width="13.788544776526162" opacity="0.855331305874977" transform="matrix(0.9249098995607121,-0.38018637231572794,0.38018637231572794,0.9249098995607121,542.7962304029063,-261.62179769097196)" fill="none" stroke="#94148c"></use><use xlink:href="#bbburst-shape-5" width="4.889735819204505" opacity="0.9523354574054772" transform="matrix(0.843401138764292,-0.5372843931579395,0.5372843931579395,0.843401138764292,544.2681556243263,-308.3002470535716)" fill="#94148c"></use><use xlink:href="#bbburst-shape-10" width="21.93508590903031" opacity="0.6547600019746664" transform="matrix(0.7640618368609668,-0.6451430147282424,0.6451430147282424,0.7640618368609668,247.2071899216349,-105.69925922593674)" fill="none" stroke="#94148c"></use><use xlink:href="#bbburst-shape-5" width="32.20268852795015" opacity="0.37994025271284404" transform="matrix(0.9759097832505504,-0.2181744599073493,0.2181744599073493,0.9759097832505504,78.08189704726435,-349.5182138084352)" fill="#94148c" filter="url(#bbburst-blur-2)"></use><use xlink:href="#bbburst-shape-5" width="39.50558046156464" opacity="0.3525768867729284" transform="matrix(0.9303398470569025,-0.3666984714695974,0.3666984714695974,0.9303398470569025,375.1678057954434,228.12772238871014)" fill="#94148c" filter="url(#bbburst-blur-2)"></use><use xlink:href="#bbburst-shape-10" width="13.874486617887037" opacity="0.8228420220999191" transform="matrix(0.9901389566795917,-0.1400887092718382,0.1400887092718382,0.9901389566795917,695.7375595552907,-222.82100111043331)" fill="none" stroke="#f7920c"></use><use xlink:href="#bbburst-shape-10" width="13.267822063060331" opacity="0.803575831721614" transform="matrix(0.8732604855257015,0.48725365511139684,-0.48725365511139684,0.8732604855257015,802.1896176222946,-292.17231438919066)" fill="none" stroke="#94148c"></use><use xlink:href="#bbburst-shape-10" width="23.761830650317876" opacity="0.5317619750577928" transform="matrix(0.9575768527385511,0.28817801980604163,-0.28817801980604163,0.9575768527385511,752.2329088717752,56.541675350062235)" fill="none" stroke="#94148c" filter="url(#bbburst-blur-1)"></use><use xlink:href="#bbburst-shape-5" width="9.732477786765728" opacity="0.8947639429042642" transform="matrix(0.990712405971946,0.1359739999164476,-0.1359739999164476,0.990712405971946,817.8096294282852,-296.61719558626254)" fill="#94148c"></use><use xlink:href="#bbburst-shape-5" width="32.9913919597181" opacity="0.34238469163942453" transform="matrix(0.720203126642348,0.6937632567198886,-0.6937632567198886,0.720203126642348,998.6222951391945,354.66767163554584)" fill="#94148c" filter="url(#bbburst-blur-2)"></use><use xlink:href="#bbburst-shape-10" width="15.645069957690175" opacity="0.7925060226727113" transform="matrix(0.9989840426971421,0.04506531300761707,-0.04506531300761707,0.9989840426971421,763.975213379479,-197.66921789682655)" fill="none" stroke="#94148c"></use><use xlink:href="#bbburst-shape-10" width="14.124427028146197" opacity="0.770047215747488" transform="matrix(0.9943586704367874,-0.10606995110390349,0.10606995110390349,0.9943586704367874,521.0431105860366,-382.6756241800527)" fill="none" stroke="#94148c"></use><use xlink:href="#bbburst-shape-10" width="39.99994393495779" opacity="0.4725616303010841" transform="matrix(0.8582766881119922,0.5131872237726793,-0.5131872237726793,0.8582766881119922,593.7270857263884,-3.354711845954057)" fill="none" stroke="#2f46bc" filter="url(#bbburst-blur-1)"></use><use xlink:href="#bbburst-shape-5" width="31.178961340120484" opacity="0.4556571689997174" transform="matrix(0.8642222619024051,-0.5031102086345403,0.5031102086345403,0.8642222619024051,91.74177295294791,-108.2241244622225)" fill="#94148c" filter="url(#bbburst-blur-1)"></use><use xlink:href="#bbburst-shape-10" width="20.299048536041408" opacity="0.6703892697850968" transform="matrix(0.907707830985499,0.41960278069574414,-0.41960278069574414,0.907707830985499,889.5186831521763,-45.05771490645736)" fill="none" stroke="#94148c"></use><use xlink:href="#bbburst-shape-10" width="53.15762009190834" opacity="0.1273030715305864" transform="matrix(0.8032422773242276,0.5956524522899144,-0.5956524522899144,0.8032422773242276,563.488003100996,408.53001084065926)" fill="none" stroke="#94148c" filter="url(#bbburst-blur-3)"></use><use xlink:href="#bbburst-shape-10" width="29.036622315025866" opacity="0.5446704273446517" transform="matrix(0.7140990068144649,0.7000447189048674,-0.7000447189048674,0.7140990068144649,704.2311583239891,-24.15290204622147)" fill="none" stroke="#2f46bc" filter="url(#bbburst-blur-1)"></use><use xlink:href="#bbburst-shape-5" width="14.251747376636539" opacity="0.5794281415638545" transform="matrix(0.8983996547394347,0.43917884781039307,-0.43917884781039307,0.8983996547394347,551.7155846334308,-312.19756199870665)" fill="#2f46bc" filter="url(#bbburst-blur-1)"></use><use xlink:href="#bbburst-shape-10" width="6.365316221688054" opacity="0.9428006372118556" transform="matrix(0.9929953606708386,-0.11815334818019842,0.11815334818019842,0.9929953606708386,697.3726565064684,-373.4482168374123)" fill="none" stroke="#94148c"></use><use xlink:href="#bbburst-shape-10" width="14.3085768620079" opacity="0.7340091422549893" transform="matrix(0.9985663951364925,0.0535271380153122,-0.0535271380153122,0.9985663951364925,548.8209101276201,-382.79157525229317)" fill="none" stroke="#94148c"></use><use xlink:href="#bbburst-shape-10" width="19.95638974245002" opacity="0.6613695411387139" transform="matrix(0.9551861443912671,0.2960057931239614,-0.2960057931239614,0.9551861443912671,574.8080136381116,-329.59952470238795)" fill="none" stroke="#94148c"></use><use xlink:href="#bbburst-shape-10" width="20.797782323657167" opacity="0.5991144460453666" transform="matrix(0.9896578160637498,0.14344827326924925,-0.14344827326924925,0.9896578160637498,477.57731004788576,-241.8842250993945)" fill="none" stroke="#94148c" filter="url(#bbburst-blur-1)"></use><use xlink:href="#bbburst-shape-10" width="20.347523758885252" opacity="0.7153479615158223" transform="matrix(0.7281348073924406,-0.6854339517878972,0.6854339517878972,0.7281348073924406,291.03075009053657,-113.04507352946695)" fill="none" stroke="#94148c"></use><use xlink:href="#bbburst-shape-10" width="52.97315627549308" opacity="0.24658413137128032" transform="matrix(0.9141749129194302,-0.40531990894693565,0.40531990894693565,0.9141749129194302,263.13231036390187,311.97393721216235)" fill="none" stroke="#94148c" filter="url(#bbburst-blur-3)"></use><use xlink:href="#bbburst-shape-5" width="18.319155226837395" opacity="0.4765371240446443" transform="matrix(0.7869510489200018,0.6170154346559809,-0.6170154346559809,0.7869510489200018,998.8580921471719,201.44308585582166)" fill="#94148c" filter="url(#bbburst-blur-1)"></use><use xlink:href="#bbburst-shape-5" width="21.12859839050291" opacity="0.6705757934187085" transform="matrix(0.7510279607007235,-0.6602704008553711,0.6602704008553711,0.7510279607007235,364.4472734402297,-7.455767908325072)" fill="#2f46bc"></use><use xlink:href="#bbburst-shape-5" width="19.938403870848582" opacity="0.6325624427098432" transform="matrix(0.9153814240335018,-0.4025876904904055,0.4025876904904055,0.9153814240335018,276.5390813972043,-261.19697136701194)" fill="#f7920c" filter="url(#bbburst-blur-1)"></use><use xlink:href="#bbburst-shape-10" width="17.859343281990476" opacity="0.49735609194238595" transform="matrix(0.8878044131621038,0.4602209512504755,-0.4602209512504755,0.8878044131621038,474.26055848846534,-331.8955143993212)" fill="none" stroke="#94148c" filter="url(#bbburst-blur-1)"></use><use xlink:href="#bbburst-shape-5" width="42.30671987170679" opacity="0.4527891325379191" transform="matrix(0.8359052085014766,-0.5488738310396142,0.5488738310396142,0.8359052085014766,348.44608580718494,180.74196677146614)" fill="#f7920c" filter="url(#bbburst-blur-1)"></use><use xlink:href="#bbburst-shape-10" width="64.32168957252303" opacity="0.24481519121007045" transform="matrix(0.9597027193955809,0.2810172421484613,-0.2810172421484613,0.9597027193955809,255.9205324510923,30.049033173515568)" fill="none" stroke="#2f46bc" filter="url(#bbburst-blur-3)"></use><use xlink:href="#bbburst-shape-10" width="23.45106024687367" opacity="0.5294163724692255" transform="matrix(0.8172771712636873,-0.5762447616518745,0.5762447616518745,0.8172771712636873,525.8385533087826,149.19383679480495)" fill="none" stroke="#f7920c" filter="url(#bbburst-blur-1)"></use><use xlink:href="#bbburst-shape-5" width="19.932630115408987" opacity="0.7208336641620954" transform="matrix(0.9240937942722255,0.3821657485798037,-0.3821657485798037,0.9240937942722255,874.4915574099198,-102.98363094149249)" fill="#f7920c"></use><use xlink:href="#bbburst-shape-10" width="16.442626509128978" opacity="0.7712927016107024" transform="matrix(0.9136683134027423,-0.40646059228883197,0.40646059228883197,0.9136683134027423,486.6262340774461,-183.860588927598)" fill="none" stroke="#2f46bc"></use><use xlink:href="#bbburst-shape-10" width="6.719104163546301" opacity="0.9360645441100597" transform="matrix(0.8723430666689339,-0.48889423604153887,0.48889423604153887,0.8723430666689339,575.0011889368435,-289.11453084870493)" fill="none" stroke="#f7920c"></use><use xlink:href="#bbburst-shape-10" width="13.75462398674189" opacity="0.6614192469747018" transform="matrix(0.8422680471678203,-0.5390589362213619,0.5390589362213619,0.8422680471678203,240.4117665619466,-316.57053236111926)" fill="none" stroke="#94148c"></use><use xlink:href="#bbburst-shape-5" width="6.008240861978252" opacity="0.9713058100162998" transform="matrix(0.9579790109045887,-0.28683830752928724,0.28683830752928724,0.9579790109045887,674.266964274665,-354.8085537297318)" fill="#94148c"></use><use xlink:href="#bbburst-shape-5" width="23.10059340488141" opacity="0.5855294187747309" transform="matrix(0.8719195206298865,-0.48964921070553036,0.48964921070553036,0.8719195206298865,437.7075584520902,40.73260213074383)" fill="#f7920c" filter="url(#bbburst-blur-1)"></use><use xlink:href="#bbburst-shape-5" width="8.95552689830649" opacity="0.8519925272744467" transform="matrix(0.9999132046647664,0.013175095333127317,-0.013175095333127317,0.9999132046647664,762.5648798215426,-257.03879270572963)" fill="#94148c"></use><use xlink:href="#bbburst-shape-5" width="16.111754430169334" opacity="0.6450440926784229" transform="matrix(0.9601909148352854,0.27934460271817974,-0.27934460271817974,0.9601909148352854,871.2166675494457,-32.88823390193164)" fill="#2f46bc" filter="url(#bbburst-blur-1)"></use><use xlink:href="#bbburst-shape-10" width="15.002512053170424" opacity="0.8330257220079218" transform="matrix(0.723684593267997,-0.6901308640153213,0.6901308640153213,0.723684593267997,359.9910936174035,-231.86345640687347)" fill="none" stroke="#94148c"></use><use xlink:href="#bbburst-shape-5" width="19.79141933003507" opacity="0.6014680705339359" transform="matrix(0.9265525787881316,0.3761652811478795,-0.3761652811478795,0.9265525787881316,601.0973862318854,-166.75788246167951)" fill="#94148c" filter="url(#bbburst-blur-1)"></use><use xlink:href="#bbburst-shape-5" width="27.891165487726603" opacity="0.34123542904288395" transform="matrix(0.9884939271853241,-0.15126055638445593,0.15126055638445593,0.9884939271853241,100.73822531955626,-185.00890499498868)" fill="#f7920c" filter="url(#bbburst-blur-2)"></use><use xlink:href="#bbburst-shape-10" width="21.197884358989533" opacity="0.6686489456667734" transform="matrix(0.9839908459906463,0.17821900854457753,-0.17821900854457753,0.9839908459906463,614.9289382197527,-173.42164668330054)" fill="none" stroke="#f7920c"></use><use xlink:href="#bbburst-shape-5" width="4.51990160339855" opacity="0.9777168396967413" transform="matrix(0.8828644863792289,0.46962782997852714,-0.46962782997852714,0.8828644863792289,964.3162622304486,-348.498966326639)" fill="#94148c"></use><use xlink:href="#bbburst-shape-5" width="20.266880195832776" opacity="0.5539303617940567" transform="matrix(0.999295039641575,-0.03754229278750973,0.03754229278750973,0.999295039641575,338.2891071685843,-307.75815413524475)" fill="#94148c" filter="url(#bbburst-blur-1)"></use><use xlink:href="#bbburst-shape-10" width="10.107853441819298" opacity="0.8778524722982463" transform="matrix(0.9182914727440649,0.3959050026023117,-0.3959050026023117,0.9182914727440649,832.3087303349373,-355.9354432739076)" fill="none" stroke="#94148c"></use><use xlink:href="#bbburst-shape-10" width="11.011929003805227" opacity="0.7528633869540812" transform="matrix(0.8055408623184764,-0.5925402257528222,0.5925402257528222,0.8055408623184764,543.7084434523604,-72.2632036124431)" fill="none" stroke="#94148c"></use><use xlink:href="#bbburst-shape-5" width="37.39113127180766" opacity="0.255871904397556" transform="matrix(0.8232791019515313,0.5676367855326856,-0.5676367855326856,0.8232791019515313,970.4270581247197,403.06074351972563)" fill="#f7920c" filter="url(#bbburst-blur-2)"></use><use xlink:href="#bbburst-shape-10" width="31.889460536812564" opacity="0.5368184942116094" transform="matrix(0.9996070389752535,-0.028031547069792082,0.028031547069792082,0.9996070389752535,358.5921990868703,-192.2039289143144)" fill="none" stroke="#94148c" filter="url(#bbburst-blur-1)"></use><use xlink:href="#bbburst-shape-10" width="17.76852061666805" opacity="0.7266757013386214" transform="matrix(0.9560538661636793,-0.2931910724996271,0.2931910724996271,0.9560538661636793,434.75554722643767,-248.0659440166334)" fill="none" stroke="#2f46bc"></use><use xlink:href="#bbburst-shape-5" width="26.698081953514667" opacity="0.46352579046426934" transform="matrix(0.9099671602735521,0.4146803193107766,-0.4146803193107766,0.9099671602735521,501.99755484736414,-80.13179045125895)" fill="#2f46bc" filter="url(#bbburst-blur-1)"></use><use xlink:href="#bbburst-shape-10" width="32.21124717792509" opacity="0.590720808444408" transform="matrix(0.9404273535677632,-0.33999469504910423,0.33999469504910423,0.9404273535677632,400.5720206304865,-45.326817502088886)" fill="none" stroke="#f7920c" filter="url(#bbburst-blur-1)"></use><use xlink:href="#bbburst-shape-10" width="19.274390391653817" opacity="0.5599085790583916" transform="matrix(0.9393930881408832,0.3428419839417788,-0.3428419839417788,0.9393930881408832,861.3336705358602,55.93860817959063)" fill="none" stroke="#94148c" filter="url(#bbburst-blur-1)"></use><use xlink:href="#bbburst-shape-10" width="7.14201738705808" opacity="0.9615352532521696" transform="matrix(0.715251080244976,0.6988675784498769,-0.6988675784498769,0.715251080244976,1039.553523271833,-279.7738160914696)" fill="none" stroke="#94148c"></use><use xlink:href="#bbburst-shape-5" width="30.207464136509522" opacity="0.5935158863379209" transform="matrix(0.8534995444026289,-0.5210935882396798,0.5210935882396798,0.8534995444026289,281.9646089217428,-55.69065052686892)" fill="#94148c" filter="url(#bbburst-blur-1)"></use><use xlink:href="#bbburst-shape-5" width="29.89783717056217" opacity="0.23194033250121848" transform="matrix(0.7113960897830257,0.7027912943694032,-0.7027912943694032,0.7113960897830257,305.4619969719468,-226.79904969139307)" fill="#2f46bc" filter="url(#bbburst-blur-3)"></use><use xlink:href="#bbburst-shape-5" width="46.705351914542064" opacity="0.37008532554464646" transform="matrix(0.9963615057316257,-0.08522763575394791,0.08522763575394791,0.9963615057316257,240.97781318578308,-15.599810589687593)" fill="#94148c" filter="url(#bbburst-blur-2)"></use><use xlink:href="#bbburst-shape-10" width="23.138205345460957" opacity="0.7161775311610614" transform="matrix(0.8137527182489483,-0.5812112469166849,0.5812112469166849,0.8137527182489483,393.2348858150457,-87.7481658541013)" fill="none" stroke="#94148c"></use><use xlink:href="#bbburst-shape-5" width="9.404679727941138" opacity="0.8688623852889128" transform="matrix(0.8838097507198869,0.46784647538744095,-0.46784647538744095,0.8838097507198869,913.1078288500681,-244.75275973828053)" fill="#94148c"></use><use xlink:href="#bbburst-shape-10" width="20.330686167810697" opacity="0.5995404887603906" transform="matrix(0.9580770565578419,-0.28651065197905246,0.28651065197905246,0.9580770565578419,584.7579781471359,9.688413913447505)" fill="none" stroke="#94148c" filter="url(#bbburst-blur-1)"></use><use xlink:href="#bbburst-shape-10" width="38.85425979037723" opacity="0.29433131216267205" transform="matrix(0.8782855299208422,0.47813651599900364,-0.47813651599900364,0.8782855299208422,783.5976070526855,318.8394249902977)" fill="none" stroke="#94148c" filter="url(#bbburst-blur-2)"></use><use xlink:href="#bbburst-shape-5" width="12.470950217344193" opacity="0.875499369405855" transform="matrix(0.9891189498194196,-0.14711799042988766,0.14711799042988766,0.9891189498194196,633.5465640775752,-322.5456030821234)" fill="#94148c"></use><use xlink:href="#bbburst-shape-10" width="18.231021531545707" opacity="0.6871737287130661" transform="matrix(0.8499580211681186,0.526850417340611,-0.526850417340611,0.8499580211681186,982.7111213733899,-32.617575086064505)" fill="none" stroke="#94148c"></use><use xlink:href="#bbburst-shape-5" width="16.173124297034136" opacity="0.8019859832514934" transform="matrix(0.7452931460103437,-0.6667369245137129,0.6667369245137129,0.7452931460103437,424.9769775890534,-123.18517851018797)" fill="#94148c"></use><use xlink:href="#bbburst-shape-10" width="17.358377658773524" opacity="0.7226638865828099" transform="matrix(0.9905014282201784,0.1375024388648678,-0.1375024388648678,0.9905014282201784,727.6917719554723,-146.74946224737005)" fill="none" stroke="#94148c"></use><use xlink:href="#bbburst-shape-10" width="56.687383641551925" opacity="-0.019262240099334083" transform="matrix(0.8798846032604761,0.47518742086165805,-0.47518742086165805,0.8798846032604761,224.43439681971142,334.76111586618987)" fill="none" stroke="#2f46bc" filter="url(#bbburst-blur-3)"></use><use xlink:href="#bbburst-shape-10" width="13.228288354235126" opacity="0.7956322327693003" transform="matrix(0.7718816725480726,0.6357662177124466,-0.6357662177124466,0.7718816725480726,972.9311342647278,-123.35532327649781)" fill="none" stroke="#2f46bc"></use><use xlink:href="#bbburst-shape-5" width="7.1449870008593575" opacity="0.9146265264433601" transform="matrix(0.7138968110449463,-0.7002509144441413,0.7002509144441413,0.7138968110449463,506.79240168689626,-198.33882423009499)" fill="#f7920c"></use><use xlink:href="#bbburst-shape-5" width="22.36995644664499" opacity="0.6591363825331851" transform="matrix(0.9702213979864345,0.2422198152283351,-0.2422198152283351,0.9702213979864345,669.2253929859379,-127.7746583732366)" fill="#94148c"></use><use xlink:href="#bbburst-shape-5" width="6.348506530198071" opacity="0.9452077226179362" transform="matrix(0.7507499920657952,-0.6605864435584555,0.6605864435584555,0.7507499920657952,525.2750708789747,-244.01396142361165)" fill="#94148c"></use><use xlink:href="#bbburst-shape-10" width="10.094260042937169" opacity="0.9227039943499569" transform="matrix(0.8944919078310251,-0.44708413841782946,0.44708413841782946,0.8944919078310251,540.1444575886219,-344.52605190636996)" fill="none" stroke="#f7920c"></use><use xlink:href="#bbburst-shape-10" width="18.332950081911516" opacity="0.5701617799979725" transform="matrix(0.7196948783429422,-0.6942904882590122,0.6942904882590122,0.7196948783429422,106.17824689377221,-150.88562229567788)" fill="none" stroke="#94148c" filter="url(#bbburst-blur-1)"></use><use xlink:href="#bbburst-shape-5" width="44.710269297428056" opacity="0.28640350812297743" transform="matrix(0.9899218133592614,-0.14161498308975473,0.14161498308975473,0.9899218133592614,22.761802595389156,-246.6170802964035)" fill="#94148c" filter="url(#bbburst-blur-2)"></use><use xlink:href="#bbburst-shape-5" width="13.067255189372828" opacity="0.8497128147801142" transform="matrix(0.9997520173849768,0.022268896125965137,-0.022268896125965137,0.9997520173849768,670.4339465471908,-328.0903667446221)" fill="#94148c"></use><use xlink:href="#bbburst-shape-5" width="4.805707765681596" opacity="0.9913802837590556" transform="matrix(0.9397670375819243,-0.34181561560948925,0.34181561560948925,0.9397670375819243,654.0455150054524,-370.0142879210679)" fill="#94148c"></use><use xlink:href="#bbburst-shape-10" width="11.810166265928519" opacity="0.7968173685601209" transform="matrix(0.7931328638059497,0.6090486518751789,-0.6090486518751789,0.7931328638059497,837.1179271114037,-297.34060754681553)" fill="none" stroke="#94148c"></use><use xlink:href="#bbburst-shape-5" width="8.628272815585444" opacity="0.886016166608654" transform="matrix(0.9708690809926989,-0.2396105748342347,0.2396105748342347,0.9708690809926989,623.3975840815662,-302.8781965792672)" fill="#f7920c"></use><use xlink:href="#bbburst-shape-5" width="7.699661236064351" opacity="0.9163686744436774" transform="matrix(0.8339331417240142,0.5518654864496557,-0.5518654864496557,0.8339331417240142,987.0717947010305,-257.8123555126365)" fill="#2f46bc"></use><use xlink:href="#bbburst-shape-10" width="49.82387262873357" opacity="0.20290615947031165" transform="matrix(0.9968987895650846,0.07869436678485492,-0.07869436678485492,0.9968987895650846,312.95266318639034,225.08225010997023)" fill="none" stroke="#2f46bc" filter="url(#bbburst-blur-3)"></use><use xlink:href="#bbburst-shape-10" width="13.654973245431663" opacity="0.8244227404692764" transform="matrix(0.9761476703780395,0.21710763601385893,-0.21710763601385893,0.9761476703780395,705.5316716196807,-373.8888858158861)" fill="none" stroke="#94148c"></use><use xlink:href="#bbburst-shape-5" width="10.536579615469517" opacity="0.9051596503923123" transform="matrix(0.7817862537101196,0.62354651270767,-0.62354651270767,0.7817862537101196,972.1214418094384,-255.6704161907008)" fill="#94148c"></use><use xlink:href="#bbburst-shape-10" width="31.1317277991674" opacity="0.4159056671337288" transform="matrix(0.9502696170264708,-0.31142841064418714,0.31142841064418714,0.9502696170264708,616.8924573360974,207.19376080878465)" fill="none" stroke="#94148c" filter="url(#bbburst-blur-2)"></use><use xlink:href="#bbburst-shape-5" width="28.95662161231792" opacity="0.2295975267040139" transform="matrix(0.9951836932694039,0.09802763207723093,-0.09802763207723093,0.9951836932694039,685.1876716758263,358.1533901388278)" fill="#94148c" filter="url(#bbburst-blur-3)"></use><use xlink:href="#bbburst-shape-5" width="15.327705340551583" opacity="0.7656852066944394" transform="matrix(0.9796246584355133,0.20083706974835108,-0.20083706974835108,0.9796246584355133,681.7669223955213,-257.7445911650212)" fill="#f7920c"></use><use xlink:href="#bbburst-shape-10" width="6.154039061882922" opacity="0.8965671351216855" transform="matrix(0.9347660806928235,0.3552638095643541,-0.3552638095643541,0.9347660806928235,930.3221916089772,-271.9509460562774)" fill="none" stroke="#f7920c"></use><use xlink:href="#bbburst-shape-10" width="14.961125644836223" opacity="0.7684165324692758" transform="matrix(0.9725575294479579,-0.2326625279542977,0.2326625279542977,0.9725575294479579,490.298621967757,-288.29352140176616)" fill="none" stroke="#94148c"></use><use xlink:href="#bbburst-shape-5" width="23.946389142613654" opacity="0.4599791372671034" transform="matrix(0.9353868410190734,0.3536261552096487,-0.3536261552096487,0.9353868410190734,405.20852270487353,-252.08340378066958)" fill="#94148c" filter="url(#bbburst-blur-1)"></use><use xlink:href="#bbburst-shape-10" width="15.996649715152323" opacity="0.6973061359258267" transform="matrix(0.9283540921478242,0.3716970266122519,-0.3716970266122519,0.9283540921478242,639.2124456154475,-354.4464434857713)" fill="none" stroke="#f7920c"></use><use xlink:href="#bbburst-shape-10" width="10.435478992730673" opacity="0.8692671801394507" transform="matrix(0.8982313018298735,-0.439523069261456,0.439523069261456,0.8982313018298735,571.1121539412277,-235.55251556389493)" fill="none" stroke="#94148c"></use><use xlink:href="#bbburst-shape-5" width="11.601653632991017" opacity="0.8181010130069744" transform="matrix(0.9653964519372823,0.26078667639836683,-0.26078667639836683,0.9653964519372823,780.7148062945937,-249.23978708141004)" fill="#94148c"></use><use xlink:href="#bbburst-shape-5" width="9.866909887794122" opacity="0.8956116975235133" transform="matrix(0.9032153294637321,0.42918768461096585,-0.42918768461096585,0.9032153294637321,914.9507789062972,-273.043451646314)" fill="#94148c"></use><use xlink:href="#bbburst-shape-5" width="22.930446858620428" opacity="0.5438757568466284" transform="matrix(0.9049517602937093,-0.4255141731380014,0.4255141731380014,0.9049517602937093,164.0762627025881,-330.4107444819204)" fill="#94148c" filter="url(#bbburst-blur-1)"></use><use xlink:href="#bbburst-shape-10" width="13.828846256482398" opacity="0.5879898337378549" transform="matrix(0.9821430743534362,0.18813554023517415,-0.18813554023517415,0.9821430743534362,456.712634673342,-379.5369246462982)" fill="none" stroke="#2f46bc" filter="url(#bbburst-blur-1)"></use><use xlink:href="#bbburst-shape-10" width="28.645598393927937" opacity="0.37629738719188943" transform="matrix(0.9805619675413558,0.19620965269686694,-0.19620965269686694,0.9805619675413558,251.7797681186539,-278.1888324895711)" fill="none" stroke="#94148c" filter="url(#bbburst-blur-2)"></use><use xlink:href="#bbburst-shape-5" width="11.05392111317081" opacity="0.7523417377218355" transform="matrix(0.8639908066638633,-0.5035075828627874,0.5035075828627874,0.8639908066638633,350.4073296140323,-297.1621404275316)" fill="#f7920c"></use><use xlink:href="#bbburst-shape-10" width="25.606407627779717" opacity="0.6136781232987175" transform="matrix(0.9284678506843712,0.37141277609358586,-0.37141277609358586,0.9284678506843712,748.1100169581832,-38.96767702184928)" fill="none" stroke="#94148c" filter="url(#bbburst-blur-1)"></use><use xlink:href="#bbburst-shape-5" width="21.19738222869965" opacity="0.5994734673368093" transform="matrix(0.9733802138208879,0.22919633361378744,-0.22919633361378744,0.9733802138208879,858.7883601349686,8.108635675814526)" fill="#f7920c" filter="url(#bbburst-blur-1)"></use><use xlink:href="#bbburst-shape-10" width="15.996049547854605" opacity="0.6815354252845927" transform="matrix(0.9998443698645346,-0.017641883408289885,0.017641883408289885,0.9998443698645346,479.70579155961764,-308.97924513758386)" fill="none" stroke="#2f46bc"></use><use xlink:href="#bbburst-shape-5" width="42.12168685461971" opacity="0.5288630266471845" transform="matrix(0.838424760564072,-0.5450173583227221,0.5450173583227221,0.838424760564072,331.26750565147165,85.55890925152852)" fill="#2f46bc" filter="url(#bbburst-blur-1)"></use><use xlink:href="#bbburst-shape-10" width="16.331154360986652" opacity="0.6088833725417425" transform="matrix(0.9946582745881467,-0.10322265639543951,0.10322265639543951,0.9946582745881467,366.47425974616226,-323.3446819748642)" fill="none" stroke="#2f46bc" filter="url(#bbburst-blur-1)"></use><use xlink:href="#bbburst-shape-5" width="7.028018420879988" opacity="0.9306727828963327" transform="matrix(0.9204205830237464,0.39092959768509045,-0.39092959768509045,0.9204205830237464,942.8595841005309,-300.9808373156872)" fill="#94148c"></use><use xlink:href="#bbburst-shape-5" width="19.597611225283806" opacity="0.7916665956155575" transform="matrix(0.8446309240182672,0.535349047063734,-0.535349047063734,0.8446309240182672,851.0045344368202,-203.73679790805863)" fill="#f7920c"></use><use xlink:href="#bbburst-shape-5" width="10.47736672924131" opacity="0.7841418464602163" transform="matrix(0.8776476967452456,0.47930629079719517,-0.47930629079719517,0.8776476967452456,971.3236447008992,-138.29097726601051)" fill="#f7920c"></use><use xlink:href="#bbburst-shape-10" width="41.59473773554223" opacity="0.21222605653829185" transform="matrix(0.9999954801393186,-0.0030066095412631453,0.0030066095412631453,0.9999954801393186,21.096832161887388,-181.56618659883026)" fill="none" stroke="#94148c" filter="url(#bbburst-blur-3)"></use><use xlink:href="#bbburst-shape-5" width="4.39095568524686" opacity="0.9591645635034308" transform="matrix(0.8868982328904698,-0.46196485201339954,0.46196485201339954,0.8868982328904698,607.4689568013843,-313.32332148923797)" fill="#94148c"></use><use xlink:href="#bbburst-shape-5" width="7.817891548824644" opacity="0.9012882428253347" transform="matrix(0.9832025795005495,-0.18251763658196335,0.18251763658196335,0.9832025795005495,625.4364347757559,-378.5627052523908)" fill="#94148c"></use><use xlink:href="#bbburst-shape-5" width="13.529167190115624" opacity="0.7585972804522848" transform="matrix(0.9530579523161761,-0.30278794481765214,0.30278794481765214,0.9530579523161761,625.3477878732083,-142.40964241657989)" fill="#2f46bc"></use><use xlink:href="#bbburst-shape-5" width="18.08826991844378" opacity="0.6412926912409938" transform="matrix(0.8436496702253589,0.5368940621096896,-0.5368940621096896,0.8436496702253589,886.9734528591539,-4.330513992275144)" fill="#2f46bc" filter="url(#bbburst-blur-1)"></use><use xlink:href="#bbburst-shape-5" width="51.27567478423211" opacity="0.04709748647031964" transform="matrix(0.9149150650402373,-0.40364640932679957,0.40364640932679957,0.9149150650402373,6.311139975903075,377.47032359121897)" fill="#f7920c" filter="url(#bbburst-blur-3)"></use><use xlink:href="#bbburst-shape-10" width="6.966034217261905" opacity="0.8789332153047029" transform="matrix(0.9725615747641244,-0.2326456173933357,0.2326456173933357,0.9725615747641244,684.9299546926634,-268.5886561494366)" fill="none" stroke="#f7920c"></use><use xlink:href="#bbburst-shape-5" width="20.04456525511723" opacity="0.7320278039178075" transform="matrix(0.7234042445291362,-0.6904247236283111,0.6904247236283111,0.7234042445291362,329.09647858304334,-90.9765196800042)" fill="#2f46bc"></use><use xlink:href="#bbburst-shape-5" width="22.578563538828444" opacity="0.44512014878208594" transform="matrix(0.9182579202848473,-0.3959828175996366,0.3959828175996366,0.9182579202848473,81.49783639813748,-287.50165829713956)" fill="#94148c" filter="url(#bbburst-blur-2)"></use><use xlink:href="#bbburst-shape-5" width="45.5856922921371" opacity="0.43443171973940864" transform="matrix(0.9961521289478972,-0.0876409492906822,0.0876409492906822,0.9961521289478972,437.5426485448597,80.01121931061112)" fill="#94148c" filter="url(#bbburst-blur-2)"></use><use xlink:href="#bbburst-shape-5" width="23.538304194086734" opacity="0.4421906524116499" transform="matrix(0.9656164644431727,-0.2599708514358233,0.2599708514358233,0.9656164644431727,127.3370927035417,-359.59159345398945)" fill="#94148c" filter="url(#bbburst-blur-2)"></use><use xlink:href="#bbburst-shape-10" width="6.8715676504710625" opacity="0.9283514779691495" transform="matrix(0.9969818190987306,-0.07763538102299784,0.07763538102299784,0.9969818190987306,710.2001690936505,-352.9938119556851)" fill="none" stroke="#94148c"></use><use xlink:href="#bbburst-shape-5" width="36.44135001567171" opacity="0.27170390027662106" transform="matrix(0.8944350661086904,0.4471978449357093,-0.4471978449357093,0.8944350661086904,295.5757703496008,-73.4877130489441)" fill="#f7920c" filter="url(#bbburst-blur-2)"></use><use xlink:href="#bbburst-shape-5" width="6.447056326729238" opacity="0.9432668878364755" transform="matrix(0.9663695812532136,-0.25715721344828857,0.25715721344828857,0.9663695812532136,637.8055154000842,-378.0799233364857)" fill="#94148c"></use><use xlink:href="#bbburst-shape-5" width="21.777312956727364" opacity="0.6479445889749449" transform="matrix(0.7770874897712694,0.6293925907102715,-0.6293925907102715,0.7770874897712694,721.652807124398,-174.54870332163387)" fill="#2f46bc" filter="url(#bbburst-blur-1)"></use><use xlink:href="#bbburst-shape-10" width="37.30728728812615" opacity="0.3606662812426574" transform="matrix(0.9998604209235967,0.01670744356530652,-0.01670744356530652,0.9998604209235967,224.0558020958357,-99.12706258521439)" fill="none" stroke="#2f46bc" filter="url(#bbburst-blur-2)"></use><use xlink:href="#bbburst-shape-5" width="17.141074500839764" opacity="0.6881939260058423" transform="matrix(0.9356413422122084,0.3529522329485068,-0.3529522329485068,0.9356413422122084,823.0946589180433,-85.54839483043384)" fill="#f7920c"></use><use xlink:href="#bbburst-shape-5" width="10.114810464478936" opacity="0.8401894712225643" transform="matrix(0.8884558050993118,0.45896217968949665,-0.45896217968949665,0.8884558050993118,895.3281147175516,-221.60393878278944)" fill="#2f46bc"></use><use xlink:href="#bbburst-shape-5" width="16.406646458451142" opacity="0.7716026210955221" transform="matrix(0.9979851879682997,-0.06344733718508198,0.06344733718508198,0.9979851879682997,547.3024634292927,-334.27946694153314)" fill="#2f46bc"></use><use xlink:href="#bbburst-shape-10" width="7.778656619763847" opacity="0.9050850639733621" transform="matrix(0.9097442154301126,0.4151691974261203,-0.4151691974261203,0.9097442154301126,876.5019205705182,-325.4110357409106)" fill="none" stroke="#94148c"></use><use xlink:href="#bbburst-shape-5" width="60.14922954113051" opacity="0.28445625369210337" transform="matrix(0.918037119157827,0.39649444869808426,-0.39649444869808426,0.918037119157827,417.11336865601226,118.79199159081764)" fill="#94148c" filter="url(#bbburst-blur-2)"></use><use xlink:href="#bbburst-shape-10" width="10.674300558985822" opacity="0.9171722487342457" transform="matrix(0.7358014494311577,-0.6771973324039364,0.6771973324039364,0.7358014494311577,476.0653906170162,-224.0218123638926)" fill="none" stroke="#f7920c"></use><use xlink:href="#bbburst-shape-10" width="16.598038518997345" opacity="0.7603293090913508" transform="matrix(0.904889248303619,-0.42564709361689684,0.42564709361689684,0.904889248303619,504.1301438285702,-149.87083142533112)" fill="none" stroke="#94148c"></use></svg>