<svg xmlns="http://www.w3.org/2000/svg" version="1.1" xmlns:xlink="http://www.w3.org/1999/xlink" xmlns:svgjs="http://svgjs.dev/svgjs" viewBox="0 0 800 800" opacity="0.71" width="800" height="800"><g stroke-width="1.25" stroke="#c850c0" fill="none"><circle r="1.4473684210526314" cx="0" cy="0" fill="#c850c0" stroke="none"></circle><circle r="1.4473684210526314" cx="80" cy="0" fill="#c850c0" stroke="none"></circle><circle r="1.4473684210526314" cx="160" cy="0" fill="#c850c0" stroke="none"></circle><circle r="1.4473684210526314" cx="240" cy="0" fill="#c850c0" stroke="none"></circle><circle r="1.4473684210526314" cx="320" cy="0" fill="#c850c0" stroke="none"></circle><circle r="1.4473684210526314" cx="400" cy="0" fill="#c850c0" stroke="none"></circle><circle r="1.4473684210526314" cx="480" cy="0" fill="#c850c0" stroke="none"></circle><circle r="1.4473684210526314" cx="560" cy="0" fill="#c850c0" stroke="none"></circle><circle r="1.4473684210526314" cx="640" cy="0" fill="#c850c0" stroke="none"></circle><circle r="1.4473684210526314" cx="720" cy="0" fill="#c850c0" stroke="none"></circle><circle r="1.4473684210526314" cx="800" cy="0" fill="#c850c0" stroke="none"></circle><circle r="1.4473684210526314" cx="0" cy="80" fill="#c850c0" stroke="none"></circle><circle r="1.4473684210526314" cx="80" cy="80" fill="#c850c0" stroke="none"></circle><circle r="1.4473684210526314" cx="160" cy="80" fill="#c850c0" stroke="none"></circle><circle r="1.4473684210526314" cx="240" cy="80" fill="#c850c0" stroke="none"></circle><circle r="1.4473684210526314" cx="320" cy="80" fill="#c850c0" stroke="none"></circle><circle r="1.4473684210526314" cx="400" cy="80" fill="#c850c0" stroke="none"></circle><circle r="1.4473684210526314" cx="480" cy="80" fill="#c850c0" stroke="none"></circle><circle r="1.4473684210526314" cx="560" cy="80" fill="#c850c0" stroke="none"></circle><circle r="1.4473684210526314" cx="640" cy="80" fill="#c850c0" stroke="none"></circle><circle r="1.4473684210526314" cx="720" cy="80" fill="#c850c0" stroke="none"></circle><circle r="1.4473684210526314" cx="800" cy="80" fill="#c850c0" stroke="none"></circle><circle r="1.4473684210526314" cx="0" cy="160" fill="#c850c0" stroke="none"></circle><circle r="1.4473684210526314" cx="80" cy="160" fill="#c850c0" stroke="none"></circle><circle r="1.4473684210526314" cx="160" cy="160" fill="#c850c0" stroke="none"></circle><circle r="1.4473684210526314" cx="240" cy="160" fill="#c850c0" stroke="none"></circle><circle r="1.4473684210526314" cx="320" cy="160" fill="#c850c0" stroke="none"></circle><circle r="1.4473684210526314" cx="400" cy="160" fill="#c850c0" stroke="none"></circle><circle r="1.4473684210526314" cx="480" cy="160" fill="#c850c0" stroke="none"></circle><circle r="1.4473684210526314" cx="560" cy="160" fill="#c850c0" stroke="none"></circle><circle r="1.4473684210526314" cx="640" cy="160" fill="#c850c0" stroke="none"></circle><circle r="1.4473684210526314" cx="720" cy="160" fill="#c850c0" stroke="none"></circle><circle r="1.4473684210526314" cx="800" cy="160" fill="#c850c0" stroke="none"></circle><circle r="1.4473684210526314" cx="0" cy="240" fill="#c850c0" stroke="none"></circle><circle r="1.4473684210526314" cx="80" cy="240" fill="#c850c0" stroke="none"></circle><circle r="1.4473684210526314" cx="160" cy="240" fill="#c850c0" stroke="none"></circle><circle r="1.4473684210526314" cx="240" cy="240" fill="#c850c0" stroke="none"></circle><circle r="1.4473684210526314" cx="320" cy="240" fill="#c850c0" stroke="none"></circle><circle r="1.4473684210526314" cx="400" cy="240" fill="#c850c0" stroke="none"></circle><circle r="1.4473684210526314" cx="480" cy="240" fill="#c850c0" stroke="none"></circle><circle r="1.4473684210526314" cx="560" cy="240" fill="#c850c0" stroke="none"></circle><circle r="1.4473684210526314" cx="640" cy="240" fill="#c850c0" stroke="none"></circle><circle r="1.4473684210526314" cx="720" cy="240" fill="#c850c0" stroke="none"></circle><circle r="1.4473684210526314" cx="800" cy="240" fill="#c850c0" stroke="none"></circle><circle r="1.4473684210526314" cx="0" cy="320" fill="#c850c0" stroke="none"></circle><circle r="1.4473684210526314" cx="80" cy="320" fill="#c850c0" stroke="none"></circle><circle r="1.4473684210526314" cx="160" cy="320" fill="#c850c0" stroke="none"></circle><circle r="1.4473684210526314" cx="240" cy="320" fill="#c850c0" stroke="none"></circle><circle r="1.4473684210526314" cx="320" cy="320" fill="#c850c0" stroke="none"></circle><circle r="1.4473684210526314" cx="400" cy="320" fill="#c850c0" stroke="none"></circle><circle r="1.4473684210526314" cx="480" cy="320" fill="#c850c0" stroke="none"></circle><circle r="1.4473684210526314" cx="560" cy="320" fill="#c850c0" stroke="none"></circle><circle r="1.4473684210526314" cx="640" cy="320" fill="#c850c0" stroke="none"></circle><circle r="1.4473684210526314" cx="720" cy="320" fill="#c850c0" stroke="none"></circle><circle r="1.4473684210526314" cx="800" cy="320" fill="#c850c0" stroke="none"></circle><circle r="1.4473684210526314" cx="0" cy="400" fill="#c850c0" stroke="none"></circle><circle r="1.4473684210526314" cx="80" cy="400" fill="#c850c0" stroke="none"></circle><circle r="1.4473684210526314" cx="160" cy="400" fill="#c850c0" stroke="none"></circle><circle r="1.4473684210526314" cx="240" cy="400" fill="#c850c0" stroke="none"></circle><circle r="1.4473684210526314" cx="320" cy="400" fill="#c850c0" stroke="none"></circle><circle r="1.4473684210526314" cx="400" cy="400" fill="#c850c0" stroke="none"></circle><circle r="1.4473684210526314" cx="480" cy="400" fill="#c850c0" stroke="none"></circle><circle r="1.4473684210526314" cx="560" cy="400" fill="#c850c0" stroke="none"></circle><circle r="1.4473684210526314" cx="640" cy="400" fill="#c850c0" stroke="none"></circle><circle r="1.4473684210526314" cx="720" cy="400" fill="#c850c0" stroke="none"></circle><circle r="1.4473684210526314" cx="800" cy="400" fill="#c850c0" stroke="none"></circle><circle r="1.4473684210526314" cx="0" cy="480" fill="#c850c0" stroke="none"></circle><circle r="1.4473684210526314" cx="80" cy="480" fill="#c850c0" stroke="none"></circle><circle r="1.4473684210526314" cx="160" cy="480" fill="#c850c0" stroke="none"></circle><circle r="1.4473684210526314" cx="240" cy="480" fill="#c850c0" stroke="none"></circle><circle r="1.4473684210526314" cx="320" cy="480" fill="#c850c0" stroke="none"></circle><circle r="1.4473684210526314" cx="400" cy="480" fill="#c850c0" stroke="none"></circle><circle r="1.4473684210526314" cx="480" cy="480" fill="#c850c0" stroke="none"></circle><circle r="1.4473684210526314" cx="560" cy="480" fill="#c850c0" stroke="none"></circle><circle r="1.4473684210526314" cx="640" cy="480" fill="#c850c0" stroke="none"></circle><circle r="1.4473684210526314" cx="720" cy="480" fill="#c850c0" stroke="none"></circle><circle r="1.4473684210526314" cx="800" cy="480" fill="#c850c0" stroke="none"></circle><circle r="1.4473684210526314" cx="0" cy="560" fill="#c850c0" stroke="none"></circle><circle r="1.4473684210526314" cx="80" cy="560" fill="#c850c0" stroke="none"></circle><circle r="1.4473684210526314" cx="160" cy="560" fill="#c850c0" stroke="none"></circle><circle r="1.4473684210526314" cx="240" cy="560" fill="#c850c0" stroke="none"></circle><circle r="1.4473684210526314" cx="320" cy="560" fill="#c850c0" stroke="none"></circle><circle r="1.4473684210526314" cx="400" cy="560" fill="#c850c0" stroke="none"></circle><circle r="1.4473684210526314" cx="480" cy="560" fill="#c850c0" stroke="none"></circle><circle r="1.4473684210526314" cx="560" cy="560" fill="#c850c0" stroke="none"></circle><circle r="1.4473684210526314" cx="640" cy="560" fill="#c850c0" stroke="none"></circle><circle r="1.4473684210526314" cx="720" cy="560" fill="#c850c0" stroke="none"></circle><circle r="1.4473684210526314" cx="800" cy="560" fill="#c850c0" stroke="none"></circle><circle r="1.4473684210526314" cx="0" cy="640" fill="#c850c0" stroke="none"></circle><circle r="1.4473684210526314" cx="80" cy="640" fill="#c850c0" stroke="none"></circle><circle r="1.4473684210526314" cx="160" cy="640" fill="#c850c0" stroke="none"></circle><circle r="1.4473684210526314" cx="240" cy="640" fill="#c850c0" stroke="none"></circle><circle r="1.4473684210526314" cx="320" cy="640" fill="#c850c0" stroke="none"></circle><circle r="1.4473684210526314" cx="400" cy="640" fill="#c850c0" stroke="none"></circle><circle r="1.4473684210526314" cx="480" cy="640" fill="#c850c0" stroke="none"></circle><circle r="1.4473684210526314" cx="560" cy="640" fill="#c850c0" stroke="none"></circle><circle r="1.4473684210526314" cx="640" cy="640" fill="#c850c0" stroke="none"></circle><circle r="1.4473684210526314" cx="720" cy="640" fill="#c850c0" stroke="none"></circle><circle r="1.4473684210526314" cx="800" cy="640" fill="#c850c0" stroke="none"></circle><circle r="1.4473684210526314" cx="0" cy="720" fill="#c850c0" stroke="none"></circle><circle r="1.4473684210526314" cx="80" cy="720" fill="#c850c0" stroke="none"></circle><circle r="1.4473684210526314" cx="160" cy="720" fill="#c850c0" stroke="none"></circle><circle r="1.4473684210526314" cx="240" cy="720" fill="#c850c0" stroke="none"></circle><circle r="1.4473684210526314" cx="320" cy="720" fill="#c850c0" stroke="none"></circle><circle r="1.4473684210526314" cx="400" cy="720" fill="#c850c0" stroke="none"></circle><circle r="1.4473684210526314" cx="480" cy="720" fill="#c850c0" stroke="none"></circle><circle r="1.4473684210526314" cx="560" cy="720" fill="#c850c0" stroke="none"></circle><circle r="1.4473684210526314" cx="640" cy="720" fill="#c850c0" stroke="none"></circle><circle r="1.4473684210526314" cx="720" cy="720" fill="#c850c0" stroke="none"></circle><circle r="1.4473684210526314" cx="800" cy="720" fill="#c850c0" stroke="none"></circle><circle r="1.4473684210526314" cx="0" cy="800" fill="#c850c0" stroke="none"></circle><circle r="1.4473684210526314" cx="80" cy="800" fill="#c850c0" stroke="none"></circle><circle r="1.4473684210526314" cx="160" cy="800" fill="#c850c0" stroke="none"></circle><circle r="1.4473684210526314" cx="240" cy="800" fill="#c850c0" stroke="none"></circle><circle r="1.4473684210526314" cx="320" cy="800" fill="#c850c0" stroke="none"></circle><circle r="1.4473684210526314" cx="400" cy="800" fill="#c850c0" stroke="none"></circle><circle r="1.4473684210526314" cx="480" cy="800" fill="#c850c0" stroke="none"></circle><circle r="1.4473684210526314" cx="560" cy="800" fill="#c850c0" stroke="none"></circle><circle r="1.4473684210526314" cx="640" cy="800" fill="#c850c0" stroke="none"></circle><circle r="1.4473684210526314" cx="720" cy="800" fill="#c850c0" stroke="none"></circle><circle r="1.4473684210526314" cx="800" cy="800" fill="#c850c0" stroke="none"></circle></g></svg>